<?xml version="1.0" encoding="UTF-8"?>
<svg width="38px" height="38px" viewBox="0 0 38 38" version="1.1" xmlns="http://www.w3.org/2000/svg" xmlns:xlink="http://www.w3.org/1999/xlink">
    <!-- Generator: Sketch 52.5 (67469) - http://www.bohemiancoding.com/sketch -->
    <title>favicon</title>
    <desc>Created with Sketch.</desc>
    <g id="Page-1" stroke="none" stroke-width="1" fill="none" fill-rule="evenodd">
        <g id="Artboard-Copy" transform="translate(-320.000000, -472.000000)" fill="#191818">
            <g id="logo" transform="translate(321.000000, 473.000000)">
                <path d="M11.531213,13.9341811 L13.3349421,13.9341811 L13.3349421,15.8409804 C13.6956897,15.1194852 14.2024466,14.5697828 14.855228,14.1918567 C15.5080094,13.8139306 16.2552611,13.6249704 17.0970056,13.6249704 C18.0933561,13.6249704 19.0424517,13.8697598 19.9443207,14.3593458 C20.8461898,14.8489319 21.5462014,15.4974089 22.0443767,16.3047965 C22.5769089,15.4115167 23.2425642,14.7501559 24.0413625,14.3206945 C24.8401608,13.8912331 25.677598,13.6765056 26.5536994,13.6765056 C28.0997606,13.6765056 29.469722,14.2047352 30.6636249,15.2612104 C31.8575277,16.3176855 32.4544702,17.6361124 32.4544702,19.2165305 L32.4544702,28.0290354 L30.599206,28.0290354 L30.599206,19.5257412 C30.599206,18.2545353 30.2084019,17.2667888 29.4267821,16.562472 C28.6451622,15.8581553 27.7046558,15.5060022 26.6052345,15.5060022 C25.6260624,15.5060022 24.780036,15.8195043 24.06713,16.446518 C23.354224,17.0735318 22.9977764,17.9453254 22.9977764,19.0619252 L22.9977764,28.0290354 L21.039442,28.0290354 L21.039442,19.3711359 C21.039442,18.1686438 20.6443433,17.2238428 19.8541343,16.5367045 C19.0639252,15.8495662 18.1105351,15.5060022 16.9939353,15.5060022 C16.0147632,15.5060022 15.177326,15.832388 14.4815984,16.4851694 C13.7858709,17.1379508 13.4380123,18.0827518 13.4380123,19.3196008 L13.4380123,28.0290354 L11.531213,28.0290354 L11.531213,13.9341811 Z" id="m"></path>
                <path d="M3.0715049,14.9457011 C3.26412892,13.3405009 3.80988879,11.9399848 4.70880088,10.7441107 C5.60771297,9.54823654 6.73133624,8.62526029 8.07970437,7.97515422 C9.42807251,7.32504816 10.8326016,7 12.2933337,7 C13.9466899,7 15.4956848,7.4093199 16.940365,8.22797199 C18.3850451,9.04662407 19.5487978,10.2505061 20.4316579,11.8396543 L18.4572715,11.8396543 C16.9002274,9.80105009 14.8777055,8.78176327 12.3896453,8.78176327 C11.0733811,8.78176327 9.82134378,9.09878555 8.63349566,9.73283962 C7.44564754,10.3668937 6.50661953,11.2537535 5.81638346,12.3934456 C5.12614739,13.5331377 4.78906041,14.8253045 4.80511241,16.2699846 C4.82116441,17.6986127 5.18232903,18.9787407 5.8886171,20.1104068 C6.59490518,21.2420729 7.52590731,22.1209068 8.68165143,22.7469349 C9.83739554,23.3729629 11.0573294,23.702024 12.3414895,23.734128 C14.9098098,23.685972 16.972461,22.5944523 18.5295052,20.4595361 L20.5038915,20.4595361 C19.8778635,21.5510722 19.1314566,22.4660226 18.2646485,23.2044146 C17.3978404,23.9428067 16.4588124,24.4925795 15.4475363,24.8537496 C14.4362602,25.2149196 13.4009216,25.3955019 12.3414895,25.3955019 C10.6399773,25.3955019 9.0307883,24.9580914 7.51387414,24.0832573 C5.99695999,23.2084232 4.82116851,21.9724377 3.98646442,20.3752635 C3.15176033,18.7780893 2.84677688,16.9682533 3.0715049,14.9457011 Z" id="C"></path>
            </g>
        </g>
    </g>
</svg>