<?xml version="1.0" encoding="UTF-8"?>
<svg width="30px" height="22px" viewBox="0 0 30 22" version="1.1" xmlns="http://www.w3.org/2000/svg" xmlns:xlink="http://www.w3.org/1999/xlink">
    <!-- Generator: Sketch 52.5 (67469) - http://www.bohemiancoding.com/sketch -->
    <title>logo</title>
    <desc>Created with Sketch.</desc>
    <g id="Page-1" stroke="none" stroke-width="1" fill="none" fill-rule="evenodd">
        <g id="Artboard-Copy" transform="translate(-328.000000, -482.000000)" fill="#483C34">
            <g id="logo" transform="translate(328.000000, 482.000000)">
                <path d="M8.53121304,6.93418113 L10.3349421,6.93418113 L10.3349421,8.84098042 C10.6956897,8.11948519 11.2024466,7.56978278 11.855228,7.19185671 C12.5080094,6.81393064 13.2552611,6.62497043 14.0970056,6.62497043 C15.0933561,6.62497043 16.0424517,6.86975979 16.9443207,7.35934584 C17.8461898,7.84893189 18.5462014,8.49740895 19.0443767,9.30479647 C19.5769089,8.41151666 20.2425642,7.75015595 21.0413625,7.3206945 C21.8401608,6.89123305 22.677598,6.67650555 23.5536994,6.67650555 C25.0997606,6.67650555 26.469722,7.20473521 27.6636249,8.26121037 C28.8575277,9.31768553 29.4544702,10.6361124 29.4544702,12.2165305 L29.4544702,21.0290354 L27.599206,21.0290354 L27.599206,12.5257412 C27.599206,11.2545353 27.2084019,10.2667888 26.4267821,9.56247205 C25.6451622,8.85815527 24.7046558,8.50600217 23.6052345,8.50600217 C22.6260624,8.50600217 21.780036,8.81950432 21.06713,9.44651804 C20.354224,10.0735318 19.9977764,10.9453254 19.9977764,12.0619252 L19.9977764,21.0290354 L18.039442,21.0290354 L18.039442,12.3711359 C18.039442,11.1686438 17.6443433,10.2238428 16.8541343,9.53670449 C16.0639252,8.84956617 15.1105351,8.50600217 13.9939353,8.50600217 C13.0147632,8.50600217 12.177326,8.83238797 11.4815984,9.48516937 C10.7858709,10.1379508 10.4380123,11.0827518 10.4380123,12.3196008 L10.4380123,21.0290354 L8.53121304,21.0290354 L8.53121304,6.93418113 Z" id="m"></path>
                <path d="M0.0715049012,7.94570109 C0.264128921,6.34050092 0.80988879,4.93998479 1.70880088,3.74411066 C2.60771297,2.54823654 3.73133624,1.62526029 5.07970437,0.975154224 C6.42807251,0.325048158 7.83260159,0 9.29333374,0 C10.9466899,0 12.4956848,0.409319902 13.940365,1.22797199 C15.3850451,2.04662407 16.5487978,3.25050613 17.4316579,4.8396543 L15.4572715,4.8396543 C13.9002274,2.80105009 11.8777055,1.78176327 9.38964527,1.78176327 C8.07338113,1.78176327 6.82134378,2.09878555 5.63349566,2.73283962 C4.44564754,3.36689368 3.50661953,4.25375347 2.81638346,5.39344559 C2.12614739,6.5331377 1.78906041,7.82530445 1.80511241,9.2699846 C1.82116441,10.6986127 2.18232903,11.9787407 2.8886171,13.1104068 C3.59490518,14.2420729 4.52590731,15.1209068 5.68165143,15.7469349 C6.83739554,16.3729629 8.05732937,16.702024 9.3414895,16.734128 C11.9098098,16.685972 13.972461,15.5944523 15.5295052,13.4595361 L17.5038915,13.4595361 C16.8778635,14.5510722 16.1314566,15.4660226 15.2646485,16.2044146 C14.3978404,16.9428067 13.4588124,17.4925795 12.4475363,17.8537496 C11.4362602,18.2149196 10.4009216,18.3955019 9.3414895,18.3955019 C7.63997733,18.3955019 6.0307883,17.9580914 4.51387414,17.0832573 C2.99695999,16.2084232 1.82116851,14.9724377 0.98646442,13.3752635 C0.151760335,11.7780893 -0.153223122,9.96825329 0.0715049012,7.94570109 Z" id="C"></path>
            </g>
        </g>
    </g>
</svg>