<?xml version="1.0" encoding="UTF-8"?>
<svg width="25px" height="17px" viewBox="0 0 25 17" version="1.1" xmlns="http://www.w3.org/2000/svg" xmlns:xlink="http://www.w3.org/1999/xlink">
    <!-- Generator: Sketch 52.5 (67469) - http://www.bohemiancoding.com/sketch -->
    <title>logo</title>
    <desc>Created with Sketch.</desc>
    <g id="Page-1" stroke="none" stroke-width="1" fill="none" fill-rule="evenodd">
        <g id="Artboard-Copy" transform="translate(-325.000000, -481.000000)" fill="#191818">
            <g id="logo" transform="translate(314.000000, 465.000000)">
                <path d="M21.5331395,22.5793605 L22.7744186,22.5793605 L22.7744186,23.8915698 C23.0226757,23.3950557 23.3714125,23.0167649 23.8206395,22.756686 C24.2698666,22.4966072 24.7841056,22.3665698 25.3633721,22.3665698 C26.0490344,22.3665698 26.7021771,22.5350274 27.3228198,22.8719477 C27.9434624,23.208868 28.4251921,23.6551329 28.7680233,24.2107558 C29.134498,23.5960241 29.5925845,23.140893 30.1422965,22.8453488 C30.6920086,22.5498047 31.2683109,22.4020349 31.8712209,22.4020349 C32.9351797,22.4020349 33.8779513,22.7655487 34.699564,23.4925872 C35.5211766,24.2196257 35.9319767,25.1269325 35.9319767,26.2145349 L35.9319767,32.2790698 L34.6552326,32.2790698 L34.6552326,26.4273256 C34.6552326,25.552515 34.3862914,24.8727737 33.8484012,24.3880814 C33.3105109,23.903389 32.663279,23.6610465 31.906686,23.6610465 C31.2328455,23.6610465 30.6506323,23.8767905 30.1600291,24.3082849 C29.6694258,24.7397793 29.4241279,25.3397248 29.4241279,26.1081395 L29.4241279,32.2790698 L28.0764535,32.2790698 L28.0764535,26.3209302 C28.0764535,25.4934067 27.804557,24.8432194 27.2607558,24.3703488 C26.7169546,23.8974783 26.0608566,23.6610465 25.2924419,23.6610465 C24.6186013,23.6610465 24.0422989,23.8856567 23.5635174,24.3348837 C23.084736,24.7841108 22.8453488,25.4342981 22.8453488,26.2854651 L22.8453488,32.2790698 L21.5331395,32.2790698 L21.5331395,22.5793605 Z" id="m"></path>
                <path d="M11.0492078,21.4680233 C11.1817666,20.3633666 11.5573442,19.3995681 12.175952,18.5765988 C12.7945597,17.7536296 13.5678078,17.1184615 14.4957194,16.6710756 C15.423631,16.2236896 16.3901911,16 17.3954287,16 C18.5332251,16 19.5992028,16.2816832 20.5933938,16.8450581 C21.5875849,17.408433 22.3884489,18.2369131 22.9960101,19.3305233 L21.6372892,19.3305233 C20.5657722,17.9276093 19.1739257,17.2261628 17.4617078,17.2261628 C16.5558893,17.2261628 15.69427,17.4443292 14.8768241,17.8806686 C14.0593781,18.317008 13.4131637,18.9273217 12.9381613,19.7116279 C12.4631589,20.4959342 12.2311845,21.3851694 12.2422311,22.3793605 C12.2532776,23.3625049 12.5018216,24.2434554 12.9878706,25.0222384 C13.4739195,25.8010213 14.1146108,26.4058118 14.9099636,26.8366279 C15.7053164,27.267444 16.5448429,27.4938952 17.4285683,27.5159884 C19.196019,27.4828487 20.6154815,26.7316934 21.6869985,25.2625 L23.0457194,25.2625 C22.6149033,26.0136665 22.1012457,26.6433114 21.5047311,27.1514535 C20.9082164,27.6595956 20.262002,28.0379348 19.5660683,28.2864826 C18.8701346,28.5350303 18.1576417,28.6593023 17.4285683,28.6593023 C16.2576322,28.6593023 15.1502305,28.3582879 14.1063299,27.75625 C13.0624293,27.1542121 12.2532804,26.3036392 11.678859,25.2045058 C11.1044375,24.1053724 10.8945559,22.8598907 11.0492078,21.4680233 Z" id="C"></path>
            </g>
        </g>
    </g>
</svg>