<?xml version="1.0" standalone="no"?>
<!DOCTYPE svg PUBLIC "-//W3C//DTD SVG 20010904//EN"
 "http://www.w3.org/TR/2001/REC-SVG-20010904/DTD/svg10.dtd">
<svg version="1.0" xmlns="http://www.w3.org/2000/svg"
 width="700.000000pt" height="700.000000pt" viewBox="0 0 700.000000 700.000000"
 preserveAspectRatio="xMidYMid meet">
<metadata>
Created by potrace 1.11, written by Peter Selinger 2001-2013
</metadata>
<g transform="translate(0.000000,700.000000) scale(0.100000,-0.100000)"
fill="#000000" stroke="none">
<path d="M2338 5525 c-2 -2 -33 -6 -70 -9 -78 -8 -135 -17 -203 -31 -61 -13
-185 -53 -267 -85 -443 -176 -777 -502 -943 -918 -35 -89 -81 -252 -89 -316
-2 -17 -7 -51 -10 -76 -22 -146 -22 -343 -2 -510 57 -463 366 -929 782 -1180
213 -129 479 -223 702 -248 l67 -7 3 -247 2 -247 175 0 175 0 0 249 0 249 38
6 c20 4 69 13 107 21 39 8 72 14 75 14 3 -1 52 15 110 35 397 137 721 406 948
786 l22 36 -179 0 c-99 0 -183 -2 -188 -6 -4 -3 -22 -24 -38 -46 -49 -65 -175
-194 -249 -253 -65 -52 -136 -99 -239 -155 -56 -32 -228 -90 -312 -107 -33 -6
-68 -14 -78 -16 -16 -5 -17 19 -16 448 1 396 3 464 19 540 45 214 178 376 375
457 88 36 174 49 294 46 203 -5 377 -75 511 -206 117 -113 178 -242 195 -409
2 -19 4 -407 4 -861 l1 -827 180 -1 180 0 1 847 c0 466 3 867 5 892 19 212
142 395 329 490 112 57 213 78 348 75 166 -3 280 -37 407 -119 176 -115 279
-285 304 -503 2 -15 4 -400 5 -855 l1 -827 169 0 c118 1 171 5 173 13 7 22 1
1643 -6 1713 -10 97 -12 111 -42 204 -54 172 -145 303 -304 440 -156 134 -339
222 -540 259 -94 18 -291 16 -380 -3 -268 -57 -441 -177 -626 -432 l-20 -29
-44 59 c-159 217 -437 379 -720 421 -142 21 -336 0 -460 -48 -140 -56 -273
-167 -343 -288 l-32 -55 -3 173 -2 172 -165 0 -165 0 0 -893 c0 -492 -2 -896
-5 -899 -3 -3 -47 4 -98 14 -451 94 -810 367 -1002 763 -50 102 -97 242 -110
325 -3 19 -9 60 -14 90 -10 58 -7 354 3 405 4 17 11 55 17 85 37 183 153 420
274 560 267 308 657 490 1060 493 129 1 254 -7 287 -18 7 -2 30 -6 51 -9 69
-11 261 -81 347 -128 150 -82 283 -192 405 -334 l60 -70 178 1 c97 0 177 3
177 7 0 4 -15 31 -32 60 -187 306 -430 524 -742 668 -141 64 -318 117 -451
135 -27 3 -66 9 -85 12 -35 5 -288 12 -292 8z"/>
</g>
</svg>
